HIERARCHY
ROOT hip
{
	OFFSET 0.00000 0.00000 0.00000
	CHANNELS 6 Xposition Yposition Zposition Zrotation Yrotation Xrotation 
	JOINT rightuplegdummy
	{
		OFFSET 0 0 0
		CHANNELS 3 Zrotation Yrotation Xrotation
		JOINT rightupleg
		{
			OFFSET -3.52197 -3.41223 0.04002
			CHANNELS 3 Zrotation Yrotation Xrotation
			JOINT rightleg
			{
				OFFSET 0.00006 -17.42390 1.60435
				CHANNELS 3 Zrotation Yrotation Xrotation
				JOINT rightfoot
				{
					OFFSET 0.06153 -16.50078 -1.63901
					CHANNELS 3 Zrotation Yrotation Xrotation
					JOINT righttoes
					{
						OFFSET 0.00298 -1.73825 3.34613
						CHANNELS 3 Zrotation Yrotation Xrotation
						End Site
						{
							OFFSET 0.00480 -0.05416 3.85043
						}
					}
				}
			}
		}
	}
	JOINT spinedummy
	{
		OFFSET 0 0 0
		CHANNELS 3 Zrotation Yrotation Xrotation
		JOINT spine
		{
			OFFSET 0.00000 4.68130 0.00000
			CHANNELS 3 Zrotation Yrotation Xrotation
			JOINT spine1
			{
				OFFSET -0.00000 10.10138 0.05002
				CHANNELS 3 Zrotation Yrotation Xrotation
				JOINT headdummy
				{
					OFFSET 0 0 0
					CHANNELS 3 Zrotation Yrotation Xrotation
					JOINT head
					{
						OFFSET -0.00000 3.43865 0.00438
						CHANNELS 3 Zrotation Yrotation Xrotation
						End Site
						{
							OFFSET -0.11417 5.02924 0.98962
						}
					}
				}
				JOINT leftshoulder1dummy
				{
					OFFSET 0 0 0
					CHANNELS 3 Zrotation Yrotation Xrotation
					JOINT leftshoulder1
					{
						OFFSET 3.53937 -0.14262 -0.08662
						CHANNELS 3 Zrotation Yrotation Xrotation
						JOINT leftarm
						{
							OFFSET 4.04833 -0.00133 0.12681
							CHANNELS 3 Zrotation Yrotation Xrotation
							JOINT leftforearm
							{
								OFFSET 10.33880 -0.01036 -0.55515
								CHANNELS 3 Zrotation Yrotation Xrotation
								JOINT lefthand
								{
									OFFSET 8.69677 0.07543 0.40060
									CHANNELS 3 Zrotation Yrotation Xrotation
									End Site
									{
										OFFSET 5.28377 -0.21905 0.59205
									}
								}
							}
						}
					}
				}
				JOINT rightshoulderdummy
				{
					OFFSET 0 0 0
					CHANNELS 3 Zrotation Yrotation Xrotation
					JOINT rightshoulder
					{
						OFFSET -3.53937 -0.14262 -0.08660
						CHANNELS 3 Zrotation Yrotation Xrotation
						JOINT rightarm
						{
							OFFSET -4.04833 -0.00133 0.12683
							CHANNELS 3 Zrotation Yrotation Xrotation
							JOINT rightforearm
							{
								OFFSET -10.37987 -0.01039 -0.55511
								CHANNELS 3 Zrotation Yrotation Xrotation
								JOINT righthand
								{
									OFFSET -8.67398 0.07538 0.40058
									CHANNELS 3 Zrotation Yrotation Xrotation
									End Site
									{
										OFFSET -5.24810 -0.21916 0.59204
									}
								}
							}
						}
					}
				}
			}
		}
	}
	JOINT leftuplegdummy
	{
		OFFSET 0 0 0
		CHANNELS 3 Zrotation Yrotation Xrotation
		JOINT leftupleg
		{
			OFFSET 3.52197 -3.41223 0.04002
			CHANNELS 3 Zrotation Yrotation Xrotation
			JOINT leftleg
			{
				OFFSET -0.00012 -17.42399 1.60337
				CHANNELS 3 Zrotation Yrotation Xrotation
				JOINT leftfoot
				{
					OFFSET -0.09972 -16.50070 -1.63802
					CHANNELS 3 Zrotation Yrotation Xrotation
					JOINT lefttoes
					{
						OFFSET -0.01575 -1.73823 3.34611
						CHANNELS 3 Zrotation Yrotation Xrotation
						End Site
						{
							OFFSET 0.03150 -0.01868 3.85031
						}
					}
				}
			}
		}
	}
}
MOTION
Frames: 9
Frame Time: 0.033333
-15.8101 40.6505 6.2458 156.3260 66.2680 151.2320 0.0000 -0.0000 0.0000 -1.7690 -23.7656 -11.5267 18.2344 24.0043 33.6375 21.7061 -2.4737 1.5441 0.0000 0.0000 -0.0000 0.0000 -0.0000 0.0000 0.4013 2.4223 1.8722 -8.7072 5.0525 15.4117 -0.0000 -0.0000 -0.0000 -31.0361 48.9316 -23.5258 -0.0000 -0.0000 -0.0000 -26.1967 -3.6250 2.3044 -38.6357 10.6679 9.4088 -168.3059 -88.9428 173.1978 19.0391 2.9730 -0.4122 -0.0000 -0.0000 -0.0000 34.0033 6.1790 3.8738 33.2700 -20.3430 13.6806 -179.2338 71.5650 -164.9181 -7.6232 -1.5695 -0.2616 0.0000 -0.0000 0.0000 -0.4690 21.5270 3.2540 -1.2193 -2.2830 29.3699 -10.0672 1.5418 6.4793 0.0000 0.0000 0.0000
-16.6428 40.0337 7.3770 163.3930 65.5637 159.4930 0.0000 -0.0000 0.0000 -2.8305 -21.4081 -18.2827 20.8477 19.3339 43.9095 19.4915 -1.1830 -4.7154 0.0000 0.0000 -0.0000 0.0000 -0.0000 0.0000 -1.2764 2.2049 3.8387 -6.4098 3.6344 13.3140 -0.0000 -0.0000 -0.0000 -31.8958 47.9231 -25.8953 -0.0000 -0.0000 -0.0000 -25.9949 -3.5035 2.2515 -37.0606 6.4564 10.2848 -37.6083 -89.7690 43.8702 19.2072 3.0730 -0.3996 -0.0000 -0.0000 -0.0000 33.4998 6.2032 3.8341 33.9558 -19.7385 11.5954 -179.3530 72.4344 -166.1367 -7.9960 -2.1244 -0.2401 0.0000 -0.0000 0.0000 0.5143 23.7199 4.7970 2.0493 3.1132 25.8260 -10.1172 0.6393 -4.4044 0.0000 0.0000 0.0000
-17.5678 39.1880 8.8315 170.1280 60.4927 167.6730 0.0000 -0.0000 0.0000 -6.1395 -22.7003 -23.1323 11.6352 8.0824 50.9651 8.9361 -0.3600 -6.8280 0.0000 0.0000 -0.0000 0.0000 -0.0000 0.0000 -4.0818 1.2909 5.6489 -3.2087 1.5240 13.0769 -0.0000 -0.0000 -0.0000 -32.6935 44.1239 -29.7580 -0.0000 -0.0000 -0.0000 -26.9862 -3.6306 2.3608 -31.6946 -3.2531 10.8938 -3.2001 -87.0700 8.9487 19.3931 3.2278 -0.3784 -0.0000 -0.0000 -0.0000 33.8725 6.1944 3.8670 35.4458 -16.4412 7.5086 -178.9260 74.6175 -164.5212 -7.7352 -2.3667 -0.2185 0.0000 -0.0000 0.0000 1.4541 20.1659 0.7650 2.8099 5.6480 23.6728 -9.6508 0.0284 -11.8971 0.0000 0.0000 0.0000
-18.3326 38.5796 10.4881 173.3350 54.2946 172.6920 0.0000 -0.0000 0.0000 -11.3817 -24.5496 -24.0862 2.4920 1.6119 54.7384 3.5215 -0.1874 -5.9810 0.0000 0.0000 -0.0000 0.0000 -0.0000 0.0000 -6.4224 0.9669 5.5003 -1.0350 0.4232 16.1719 -0.0000 -0.0000 -0.0000 -32.4308 38.2946 -32.8770 -0.0000 -0.0000 -0.0000 -27.6907 -3.8727 2.4909 -27.5093 -17.1635 10.6143 -1.2822 -79.1178 7.3535 20.8504 3.7187 -0.3192 -0.0000 -0.0000 -0.0000 35.5646 6.2429 4.0541 36.3971 -8.7455 2.7746 -176.8074 81.6413 -157.1389 -7.9246 -3.3032 -0.1656 0.0000 -0.0000 0.0000 2.1980 17.7137 -7.0766 1.1073 1.2670 27.1552 -8.1349 -0.1131 -14.1193 0.0000 0.0000 0.0000
-18.7662 38.5057 12.1182 175.6700 51.3947 175.8770 0.0000 -0.0000 0.0000 -15.9343 -21.4461 -20.6053 -1.2414 -0.5522 53.2489 0.8403 -0.0682 -4.1648 0.0000 0.0000 -0.0000 0.0000 -0.0000 0.0000 -5.3196 1.7379 5.9433 -1.5820 1.4000 17.5422 -0.0000 -0.0000 -0.0000 -30.4782 34.1381 -32.0532 -0.0000 -0.0000 -0.0000 -27.6758 -3.9789 2.5256 -29.1089 -25.3596 9.9591 0.8332 -71.9226 14.6229 22.1164 4.8661 -0.1223 -0.0000 -0.0000 -0.0000 36.4993 6.3247 4.1821 36.4144 -0.0533 2.1701 -72.0912 89.1239 -44.6141 -7.1133 -4.8312 -0.0706 0.0000 -0.0000 0.0000 4.1206 17.8969 -12.1500 -0.4669 -1.2608 28.6271 -7.7835 0.0357 -11.8603 0.0000 0.0000 0.0000
-18.9026 38.7639 13.6637 178.1490 50.8417 177.8080 0.0000 -0.0000 0.0000 -18.5887 -15.1469 -14.1735 -1.6127 -0.9946 47.2054 -0.1495 0.0107 0.1088 0.0000 0.0000 -0.0000 0.0000 -0.0000 0.0000 -2.1036 2.6554 7.9508 -3.6449 3.0463 16.3489 -0.0000 -0.0000 -0.0000 -28.1203 32.2149 -29.1948 -0.0000 -0.0000 -0.0000 -27.4333 -3.9719 2.5057 -33.9492 -24.4709 9.5106 2.1246 -71.8565 22.3470 22.0603 5.2516 -0.0499 -0.0000 -0.0000 -0.0000 34.7179 6.2285 3.9644 37.1616 4.9235 6.4811 -32.6047 88.2506 -2.3502 -5.6170 -5.2560 -0.0467 0.0000 -0.0000 0.0000 7.0994 17.1013 -12.6067 -0.0970 -0.5853 25.0121 -9.4978 0.3579 -7.5975 0.0000 0.0000 0.0000
-18.8706 39.0073 15.1301 179.7620 50.5576 179.4900 0.0000 -0.0000 0.0000 -20.0720 -10.8946 -8.1632 -0.4966 -0.2283 40.1187 0.7182 -0.0817 3.8977 0.0000 0.0000 -0.0000 0.0000 -0.0000 0.0000 0.5275 3.1143 8.7464 -5.1724 4.1299 15.1170 -0.0000 -0.0000 -0.0000 -26.2277 30.9721 -27.4705 -0.0000 -0.0000 -0.0000 -27.5840 -3.9555 2.5111 -36.1986 -19.8684 10.6905 1.8340 -75.7102 17.9755 21.6705 4.4642 -0.1941 -0.0000 -0.0000 -0.0000 31.8740 5.9583 3.5837 37.6864 5.9333 12.0296 -174.4317 83.4198 -149.0654 -4.4503 -5.0040 -0.0525 0.0000 -0.0000 0.0000 10.1083 12.2109 -12.2133 1.0541 2.9553 20.2876 -11.3837 0.7315 -4.2429 0.0000 0.0000 0.0000
-18.7909 39.0028 16.6243 -179.7860 51.1235 -178.7350 0.0000 -0.0000 0.0000 -21.3718 -9.7733 -5.0152 0.4618 0.8025 35.3239 0.4027 -0.0392 4.3816 0.0000 0.0000 -0.0000 0.0000 -0.0000 0.0000 2.2992 3.4023 8.2260 -6.7373 5.0345 13.6523 -0.0000 -0.0000 -0.0000 -24.9222 30.2739 -27.1162 -0.0000 -0.0000 -0.0000 -27.8649 -3.8951 2.5110 -35.3012 -14.5666 13.0420 -0.3140 -79.3458 8.9391 21.5380 4.2557 -0.2311 -0.0000 -0.0000 -0.0000 30.1719 5.6112 3.2983 36.5998 6.8555 15.2985 -178.8934 72.3394 -161.6166 -1.1639 -5.5409 -0.0459 0.0000 -0.0000 0.0000 12.2379 10.8517 -13.4014 1.3292 4.9339 17.2238 -12.5601 1.0733 -1.6926 0.0000 0.0000 0.0000
-18.7325 38.6070 18.2779 179.7930 53.2307 -178.6090 0.0000 -0.0000 0.0000 -23.1007 -9.7837 -3.6792 0.8857 1.3552 33.7873 -0.1084 0.0268 3.4207 0.0000 0.0000 -0.0000 0.0000 -0.0000 0.0000 3.7980 3.6020 8.9135 -8.9702 5.9506 12.3904 -0.0000 -0.0000 -0.0000 -24.8549 30.4653 -27.7561 -0.0000 -0.0000 -0.0000 -27.4890 -3.8468 2.4678 -33.9204 -9.2435 14.7027 -1.8083 -81.1673 5.5234 20.7407 4.1626 -0.2400 -0.0000 -0.0000 -0.0000 28.7105 5.3299 3.0700 35.2995 10.3063 14.5086 179.8993 62.2703 -171.9799 3.1186 -6.9598 -0.1065 0.0000 -0.0000 0.0000 14.1048 12.7054 -14.6833 1.3880 5.4965 16.8255 -14.0263 1.4307 0.2744 0.0000 0.0000 0.0000
